<?xml version="1.0" standalone="no"?>
<!DOCTYPE svg PUBLIC "-//W3C//DTD SVG 20010904//EN"
 "http://www.w3.org/TR/2001/REC-SVG-20010904/DTD/svg10.dtd">
<svg version="1.0" xmlns="http://www.w3.org/2000/svg"
 width="306.000000pt" height="306.000000pt" viewBox="0 0 306.000000 306.000000"
 preserveAspectRatio="xMidYMid meet">
<metadata>
Created by potrace 1.11, written by Peter Selinger 2001-2013
</metadata>
<g transform="translate(0.000000,306.000000) scale(0.100000,-0.100000)"
fill="#000000" stroke="none">
<path d="M1389 3056 c-2 -2 -26 -6 -54 -9 -161 -19 -325 -72 -496 -159 -410
-210 -699 -600 -785 -1063 -27 -146 -25 -414 4 -550 68 -315 196 -551 416
-770 176 -174 365 -292 584 -364 438 -143 935 -78 1300 171 24 17 44 28 45 26
7 -12 116 -136 132 -151 41 -36 152 -104 205 -127 75 -31 141 -48 222 -56 l68
-7 0 844 c0 685 -3 862 -15 939 -97 643 -594 1150 -1234 1259 -91 16 -380 28
-392 17z m324 -771 c115 -30 240 -97 323 -172 93 -85 173 -216 215 -353 18
-61 23 -98 23 -205 0 -121 -2 -137 -33 -225 -17 -52 -43 -112 -57 -132 -13
-21 -24 -41 -24 -45 0 -8 -99 -123 -125 -144 -11 -10 -33 -29 -50 -43 -48 -42
-174 -103 -260 -127 -55 -15 -110 -22 -180 -22 -118 -1 -152 4 -262 42 -540
186 -675 894 -241 1266 102 87 236 152 362 175 70 12 238 4 309 -15z"/>
</g>
</svg>
